<?xml version="1.0" encoding="UTF-8"?>
<svg width="360px" height="240px" viewBox="0 0 360 240" version="1.1" xmlns="http://www.w3.org/2000/svg" xmlns:xlink="http://www.w3.org/1999/xlink">
    <!-- Generator: Sketch 52.2 (67145) - http://www.bohemiancoding.com/sketch -->
    <title>illust - candidates</title>
    <desc>Created with Sketch.</desc>
    <defs>
        <rect id="path-1" x="-5.68434189e-14" y="0" width="360" height="240"></rect>
        <polyline id="path-3" points="0.0581792668 0.130731651 0.812026474 6.46004778 3.52374791 29.2318902 21.3819448 29.2318902 24.0936662 6.46004778 24.8475134 0.130731651"></polyline>
        <polyline id="path-5" points="0.0581792668 0.130731651 0.812026474 6.46004778 3.52374791 29.2318902 21.3819448 29.2318902 24.0936662 6.46004778 24.8475134 0.130731651"></polyline>
        <polyline id="path-7" points="0.0581792668 0.130731651 0.812026474 6.46004778 3.52374791 29.2318902 21.3819448 29.2318902 24.0936662 6.46004778 24.8475134 0.130731651"></polyline>
        <polyline id="path-9" points="0.0581792668 0.130731651 0.812026474 6.46004778 3.52374791 29.2318902 21.3819448 29.2318902 24.0936662 6.46004778 24.8475134 0.130731651"></polyline>
        <polyline id="path-11" points="0.0581792668 0.130731651 0.812026474 6.46004778 3.52374791 29.2318902 21.3819448 29.2318902 24.0936662 6.46004778 24.8475134 0.130731651"></polyline>
        <polyline id="path-13" points="0.0581792668 0.130731651 0.812026474 6.46004778 3.52374791 29.2318902 21.3819448 29.2318902 24.0936662 6.46004778 24.8475134 0.130731651"></polyline>
        <polyline id="path-15" points="0.0581792668 0.130731651 0.812026474 6.46004778 3.52374791 29.2318902 21.3819448 29.2318902 24.0936662 6.46004778 24.8475134 0.130731651"></polyline>
        <polyline id="path-17" points="0.0581792668 0.130731651 0.812026474 6.46004778 3.52374791 29.2318902 21.3819448 29.2318902 24.0936662 6.46004778 24.8475134 0.130731651"></polyline>
        <polyline id="path-19" points="0.0581792668 0.130731651 0.812026474 6.46004778 3.52374791 29.2318902 21.3819448 29.2318902 24.0936662 6.46004778 24.8475134 0.130731651"></polyline>
        <polyline id="path-21" points="0.0581792668 0.130731651 0.812026474 6.46004778 3.52374791 29.2318902 21.3819448 29.2318902 24.0936662 6.46004778 24.8475134 0.130731651"></polyline>
        <path d="M0.115742448,26.7483878 C0.115742448,41.4033206 11.970791,53.2836524 26.5945357,53.2836524 C41.2182804,53.2836524 53.0733289,41.4033206 53.0733289,26.7483878 C53.0733289,12.093455 41.2182804,0.213123182 26.5945357,0.213123182 C11.970791,0.213123182 0.115742448,12.093455 0.115742448,26.7483878" id="path-23"></path>
        <path d="M0.115742448,26.7483878 C0.115742448,41.4033206 11.970791,53.2836524 26.5945357,53.2836524 C41.2182804,53.2836524 53.0733289,41.4033206 53.0733289,26.7483878 C53.0733289,12.093455 41.2182804,0.213123182 26.5945357,0.213123182 C11.970791,0.213123182 0.115742448,12.093455 0.115742448,26.7483878" id="path-25"></path>
        <path d="M0.115742448,26.7483878 C0.115742448,41.4033206 11.970791,53.2836524 26.5945357,53.2836524 C41.2182804,53.2836524 53.0733289,41.4033206 53.0733289,26.7483878 C53.0733289,12.093455 41.2182804,0.213123182 26.5945357,0.213123182 C11.970791,0.213123182 0.115742448,12.093455 0.115742448,26.7483878 Z" id="path-27"></path>
        <path d="M0.115742448,26.7483878 C0.115742448,41.4033206 11.970791,53.2836524 26.5945357,53.2836524 C41.2182804,53.2836524 53.0733289,41.4033206 53.0733289,26.7483878 C53.0733289,12.093455 41.2182804,0.213123182 26.5945357,0.213123182 C11.970791,0.213123182 0.115742448,12.093455 0.115742448,26.7483878" id="path-29"></path>
        <path d="M0.115742448,26.7483878 C0.115742448,41.4033206 11.970791,53.2836524 26.5945357,53.2836524 C41.2182804,53.2836524 53.0733289,41.4033206 53.0733289,26.7483878 C53.0733289,12.093455 41.2182804,0.213123182 26.5945357,0.213123182 C11.970791,0.213123182 0.115742448,12.093455 0.115742448,26.7483878" id="path-31"></path>
        <path d="M0.115742448,26.7483878 C0.115742448,41.4033206 11.970791,53.2836524 26.5945357,53.2836524 C41.2182804,53.2836524 53.0733289,41.4033206 53.0733289,26.7483878 C53.0733289,12.093455 41.2182804,0.213123182 26.5945357,0.213123182 C11.970791,0.213123182 0.115742448,12.093455 0.115742448,26.7483878" id="path-33"></path>
        <path d="M0.115742448,26.7483878 C0.115742448,41.4033206 11.970791,53.2836524 26.5945357,53.2836524 C41.2182804,53.2836524 53.0733289,41.4033206 53.0733289,26.7483878 C53.0733289,12.093455 41.2182804,0.213123182 26.5945357,0.213123182 C11.970791,0.213123182 0.115742448,12.093455 0.115742448,26.7483878" id="path-35"></path>
        <path d="M0.115742448,26.7483878 C0.115742448,41.4033206 11.970791,53.2836524 26.5945357,53.2836524 C41.2182804,53.2836524 53.0733289,41.4033206 53.0733289,26.7483878 C53.0733289,12.093455 41.2182804,0.213123182 26.5945357,0.213123182 C11.970791,0.213123182 0.115742448,12.093455 0.115742448,26.7483878" id="path-37"></path>
        <path d="M0.115742448,26.7483878 C0.115742448,41.4033206 11.970791,53.2836524 26.5945357,53.2836524 C41.2182804,53.2836524 53.0733289,41.4033206 53.0733289,26.7483878 C53.0733289,12.093455 41.2182804,0.213123182 26.5945357,0.213123182 C11.970791,0.213123182 0.115742448,12.093455 0.115742448,26.7483878" id="path-39"></path>
        <path d="M0.0824700421,26.7661004 C0.0824700421,41.4170336 12.0288447,53.2939371 26.7648332,53.2939371 C41.5011091,53.2939371 53.4474838,41.4170336 53.4474838,26.7661004 C53.4474838,12.1148816 41.5011091,0.23797803 26.7648332,0.23797803 C12.0288447,0.23797803 0.0824700421,12.1148816 0.0824700421,26.7661004" id="path-41"></path>
        <path d="M0.0824700421,26.7661004 C0.0824700421,41.4170336 12.0288447,53.2939371 26.7648332,53.2939371 C41.5011091,53.2939371 53.4474838,41.4170336 53.4474838,26.7661004 C53.4474838,12.1148816 41.5011091,0.23797803 26.7648332,0.23797803 C12.0288447,0.23797803 0.0824700421,12.1148816 0.0824700421,26.7661004 Z" id="path-43"></path>
        <path d="M0.0824700421,26.7661004 C0.0824700421,41.4170336 12.0288447,53.2939371 26.7648332,53.2939371 C41.5011091,53.2939371 53.4474838,41.4170336 53.4474838,26.7661004 C53.4474838,12.1148816 41.5011091,0.23797803 26.7648332,0.23797803 C12.0288447,0.23797803 0.0824700421,12.1148816 0.0824700421,26.7661004" id="path-45"></path>
        <path d="M0.0824700421,26.7661004 C0.0824700421,41.4170336 12.0288447,53.2939371 26.7648332,53.2939371 C41.5011091,53.2939371 53.4474838,41.4170336 53.4474838,26.7661004 C53.4474838,12.1148816 41.5011091,0.23797803 26.7648332,0.23797803 C12.0288447,0.23797803 0.0824700421,12.1148816 0.0824700421,26.7661004" id="path-47"></path>
        <path d="M0.0824700421,26.7661004 C0.0824700421,41.4170336 12.0288447,53.2939371 26.7648332,53.2939371 C41.5011091,53.2939371 53.4474838,41.4170336 53.4474838,26.7661004 C53.4474838,12.1148816 41.5011091,0.23797803 26.7648332,0.23797803 C12.0288447,0.23797803 0.0824700421,12.1148816 0.0824700421,26.7661004 Z" id="path-49"></path>
        <path d="M0.0824700421,26.7661004 C0.0824700421,41.4170336 12.0288447,53.2939371 26.7648332,53.2939371 C41.5011091,53.2939371 53.4474838,41.4170336 53.4474838,26.7661004 C53.4474838,12.1148816 41.5011091,0.23797803 26.7648332,0.23797803 C12.0288447,0.23797803 0.0824700421,12.1148816 0.0824700421,26.7661004" id="path-51"></path>
        <path d="M0.0824700421,26.7661004 C0.0824700421,41.4170336 12.0288447,53.2939371 26.7648332,53.2939371 C41.5011091,53.2939371 53.4474838,41.4170336 53.4474838,26.7661004 C53.4474838,12.1148816 41.5011091,0.23797803 26.7648332,0.23797803 C12.0288447,0.23797803 0.0824700421,12.1148816 0.0824700421,26.7661004" id="path-53"></path>
        <path d="M0.0824700421,26.7661004 C0.0824700421,41.4170336 12.0288447,53.2939371 26.7648332,53.2939371 C41.5011091,53.2939371 53.4474838,41.4170336 53.4474838,26.7661004 C53.4474838,12.1148816 41.5011091,0.23797803 26.7648332,0.23797803 C12.0288447,0.23797803 0.0824700421,12.1148816 0.0824700421,26.7661004" id="path-55"></path>
        <path d="M0.0824700421,26.7661004 C0.0824700421,41.4170336 12.0288447,53.2939371 26.7648332,53.2939371 C41.5011091,53.2939371 53.4474838,41.4170336 53.4474838,26.7661004 C53.4474838,12.1148816 41.5011091,0.23797803 26.7648332,0.23797803 C12.0288447,0.23797803 0.0824700421,12.1148816 0.0824700421,26.7661004 Z" id="path-57"></path>
        <path d="M26.7648332,53.2939371 C41.5011091,53.2939371 53.4474838,41.4170336 53.4474838,26.7661004 C53.4474838,12.1148816 41.5011091,0.23797803 26.7648332,0.23797803 C12.0288447,0.23797803 0.0824700421,12.1148816 0.0824700421,26.7661004 C0.0824700421,41.4170336 12.0288447,53.2939371 26.7648332,53.2939371 Z" id="path-59"></path>
        <path d="M0.708605006,27.4616711 C0.708605006,42.5274547 12.9263389,54.7404403 27.9973383,54.7404403 C43.068625,54.7404403 55.2863589,42.5274547 55.2863589,27.4616711 C55.2863589,12.3958874 43.068625,0.182901864 27.9973383,0.182901864 C12.9263389,0.182901864 0.708605006,12.3958874 0.708605006,27.4616711" id="path-61"></path>
        <path d="M27.4487483,0.182643407 C12.3774616,0.182643407 0.159727716,12.3959161 0.159727716,27.4616998 C0.159727716,42.5274834 12.3774616,54.740469 27.4487483,54.740469 C42.520035,54.740469 54.7374816,42.5274834 54.7374816,27.4616998 C54.7374816,12.3959161 42.520035,0.182643407 27.4487483,0.182643407 Z" id="path-63"></path>
        <path d="M27.4487483,0.182643407 C12.3774616,0.182643407 0.159727716,12.3959161 0.159727716,27.4616998 C0.159727716,42.5274834 12.3774616,54.740469 27.4487483,54.740469 C42.520035,54.740469 54.7374816,42.5274834 54.7374816,27.4616998" id="path-65"></path>
        <path d="M27.4487483,0.182643407 C12.3774616,0.182643407 0.159727716,12.3959161 0.159727716,27.4616998 C0.159727716,42.5274834 12.3774616,54.740469 27.4487483,54.740469 C42.520035,54.740469 54.7374816,42.5274834 54.7374816,27.4616998 C54.7374816,12.3959161 42.520035,0.182643407 27.4487483,0.182643407 Z" id="path-67"></path>
        <path d="M27.4487483,0.182643407 C12.3774616,0.182643407 0.159727716,12.3959161 0.159727716,27.4616998 C0.159727716,42.5274834 12.3774616,54.740469 27.4487483,54.740469 C42.520035,54.740469 54.7374816,42.5274834 54.7374816,27.4616998 C54.7374816,12.3959161 42.520035,0.182643407 27.4487483,0.182643407 Z" id="path-69"></path>
        <path d="M27.4487483,0.182643407 C12.3774616,0.182643407 0.159727716,12.3959161 0.159727716,27.4616998 C0.159727716,42.5274834 12.3774616,54.740469 27.4487483,54.740469 C42.520035,54.740469 54.7374816,42.5274834 54.7374816,27.4616998 C54.7374816,12.3959161 42.520035,0.182643407 27.4487483,0.182643407 Z" id="path-71"></path>
        <path d="M27.4487483,0.182643407 C12.3774616,0.182643407 0.159727716,12.3959161 0.159727716,27.4616998 C0.159727716,42.5274834 12.3774616,54.740469 27.4487483,54.740469 C42.520035,54.740469 54.7374816,42.5274834 54.7374816,27.4616998" id="path-73"></path>
        <path d="M27.4487483,0.182643407 C12.3774616,0.182643407 0.159727716,12.3959161 0.159727716,27.4616998 C0.159727716,42.5274834 12.3774616,54.740469 27.4487483,54.740469 C42.520035,54.740469 54.7374816,42.5274834 54.7374816,27.4616998 C54.7374816,12.3959161 42.520035,0.182643407 27.4487483,0.182643407 Z" id="path-75"></path>
        <path d="M27.4487483,0.182643407 C12.3774616,0.182643407 0.159727716,12.3959161 0.159727716,27.4616998 C0.159727716,42.5274834 12.3774616,54.740469 27.4487483,54.740469 C42.520035,54.740469 54.7374816,42.5274834 54.7374816,27.4616998" id="path-77"></path>
        <path d="M27.4487483,0.182643407 C12.3774616,0.182643407 0.159727716,12.3959161 0.159727716,27.4616998 C0.159727716,42.5274834 12.3774616,54.740469 27.4487483,54.740469 C42.520035,54.740469 54.7374816,42.5274834 54.7374816,27.4616998 C54.7374816,12.3959161 42.520035,0.182643407 27.4487483,0.182643407 Z" id="path-79"></path>
        <path d="M27.4487483,0.182643407 C12.3774616,0.182643407 0.159727716,12.3959161 0.159727716,27.4616998 C0.159727716,42.5274834 12.3774616,54.740469 27.4487483,54.740469 C42.520035,54.740469 54.7374816,42.5274834 54.7374816,27.4616998 C54.7374816,12.3959161 42.520035,0.182643407 27.4487483,0.182643407 Z" id="path-81"></path>
        <path d="M0.439872409,47.1294957 C0.439872409,72.9303145 21.3110257,93.8459797 47.0564408,93.8459797 C72.8023512,93.8459797 93.6735045,72.9303145 93.6735045,47.1294957 C93.6735045,21.3291733 72.8023512,0.413508073 47.0564408,0.413508073 C21.3110257,0.413508073 0.439872409,21.3291733 0.439872409,47.1294957" id="path-83"></path>
        <path d="M0.439872409,47.1294957 C0.439872409,72.9303145 21.3110257,93.8459797 47.0564408,93.8459797 C72.8023512,93.8459797 93.6735045,72.9303145 93.6735045,47.1294957 C93.6735045,21.3291733 72.8023512,0.413508073 47.0564408,0.413508073 C21.3110257,0.413508073 0.439872409,21.3291733 0.439872409,47.1294957 Z" id="path-85"></path>
        <path d="M0.439872409,47.1294957 C0.439872409,72.9303145 21.3110257,93.8459797 47.0564408,93.8459797 C72.8023512,93.8459797 93.6735045,72.9303145 93.6735045,47.1294957 C93.6735045,21.3291733 72.8023512,0.413508073 47.0564408,0.413508073 C21.3110257,0.413508073 0.439872409,21.3291733 0.439872409,47.1294957 Z" id="path-87"></path>
        <path d="M0.439872409,47.1294957 C0.439872409,72.9303145 21.3110257,93.8459797 47.0564408,93.8459797 C72.8023512,93.8459797 93.6735045,72.9303145 93.6735045,47.1294957 C93.6735045,21.3291733 72.8023512,0.413508073 47.0564408,0.413508073 C21.3110257,0.413508073 0.439872409,21.3291733 0.439872409,47.1294957 Z" id="path-89"></path>
        <path d="M0.439872409,47.1294957 C0.439872409,72.9303145 21.3110257,93.8459797 47.0564408,93.8459797 C72.8023512,93.8459797 93.6735045,72.9303145 93.6735045,47.1294957 C93.6735045,21.3291733 72.8023512,0.413508073 47.0564408,0.413508073 C21.3110257,0.413508073 0.439872409,21.3291733 0.439872409,47.1294957" id="path-91"></path>
        <path d="M0.439872409,47.1294957 C0.439872409,72.9303145 21.3110257,93.8459797 47.0564408,93.8459797 C72.8023512,93.8459797 93.6735045,72.9303145 93.6735045,47.1294957 C93.6735045,21.3291733 72.8023512,0.413508073 47.0564408,0.413508073 C21.3110257,0.413508073 0.439872409,21.3291733 0.439872409,47.1294957 Z" id="path-93"></path>
        <path d="M0.439872409,47.1294957 C0.439872409,72.9303145 21.3110257,93.8459797 47.0564408,93.8459797 C72.8023512,93.8459797 93.6735045,72.9303145 93.6735045,47.1294957 C93.6735045,21.3291733 72.8023512,0.413508073 47.0564408,0.413508073 C21.3110257,0.413508073 0.439872409,21.3291733 0.439872409,47.1294957 Z" id="path-95"></path>
        <path d="M0.439872409,47.1294957 C0.439872409,72.9303145 21.3110257,93.8459797 47.0564408,93.8459797 C72.8023512,93.8459797 93.6735045,72.9303145 93.6735045,47.1294957 C93.6735045,21.3291733 72.8023512,0.413508073 47.0564408,0.413508073 C21.3110257,0.413508073 0.439872409,21.3291733 0.439872409,47.1294957 Z" id="path-97"></path>
        <path d="M0.439872409,47.1294957 C0.439872409,72.9303145 21.3110257,93.8459797 47.0564408,93.8459797 C72.8023512,93.8459797 93.6735045,72.9303145 93.6735045,47.1294957 C93.6735045,21.3291733 72.8023512,0.413508073 47.0564408,0.413508073 C21.3110257,0.413508073 0.439872409,21.3291733 0.439872409,47.1294957" id="path-99"></path>
        <path d="M0.439872409,47.1294957 C0.439872409,72.9303145 21.3110257,93.8459797 47.0564408,93.8459797 C72.8023512,93.8459797 93.6735045,72.9303145 93.6735045,47.1294957 C93.6735045,21.3291733 72.8023512,0.413508073 47.0564408,0.413508073 C21.3110257,0.413508073 0.439872409,21.3291733 0.439872409,47.1294957" id="path-101"></path>
        <path d="M0.439872409,47.1294957 C0.439872409,72.9303145 21.3110257,93.8459797 47.0564408,93.8459797 C72.8023512,93.8459797 93.6735045,72.9303145 93.6735045,47.1294957 C93.6735045,21.3291733 72.8023512,0.413508073 47.0564408,0.413508073 C21.3110257,0.413508073 0.439872409,21.3291733 0.439872409,47.1294957 Z" id="path-103"></path>
        <path d="M0.439872409,47.1294957 C0.439872409,72.9303145 21.3110257,93.8459797 47.0564408,93.8459797 C72.8023512,93.8459797 93.6735045,72.9303145 93.6735045,47.1294957 C93.6735045,21.3291733 72.8023512,0.413508073 47.0564408,0.413508073 C21.3110257,0.413508073 0.439872409,21.3291733 0.439872409,47.1294957 Z" id="path-105"></path>
        <path d="M47.0564408,93.8459797 C72.8023512,93.8459797 93.6735045,72.9303145 93.6735045,47.1294957 C93.6735045,21.3291733 72.8023512,0.413508073 47.0564408,0.413508073 C21.3110257,0.413508073 0.439872409,21.3291733 0.439872409,47.1294957 C0.439872409,72.9303145 21.3110257,93.8459797 47.0564408,93.8459797 Z" id="path-107"></path>
    </defs>
    <g id="R2" stroke="none" stroke-width="1" fill="none" fill-rule="evenodd">
        <g id="Cosmos-Job-Paid-V1-a-D" transform="translate(-396.000000, -870.000000)">
            <g id="m2-:-what" transform="translate(396.000000, 870.000000)">
                <g id="illust---candidates">
                    <mask id="mask-2" fill="white">
                        <use xlink:href="#path-1"></use>
                    </mask>
                    <use id="Mask" fill="#D1D1D1" xlink:href="#path-1"></use>
                    <g id="candidates" mask="url(#mask-2)">
                        <g transform="translate(-23.000000, -11.000000)" id="Group-35">
                            <g transform="translate(-0.950000, -0.952703)">
                                <g id="Group-263">
                                    <g id="Group-42" transform="translate(0.000000, 0.476351)">
                                        <rect id="Rectangle" fill="#FBEBD3" x="0.95" y="0" width="418" height="282.952703"></rect>
                                        <polygon id="Fill-3" fill="#D2BAA1" points="0.106214429 283.020981 418.572099 283.020981 418.572099 224.837838 0.106214429 224.837838"></polygon>
                                        <g id="WOMAN-TYPING" transform="translate(130.216844, 104.320946)">
                                            <polygon id="Fill-5" fill="#6FA9DC" points="20.008998 65.0219595 13.5471215 40.7280405 47.0139623 40.7280405 53.4754797 65.0219595"></polygon>
                                            <path d="M48.0104693,40.0135135 L12.8341151,40.0135135 L19.7255003,65.0219595 L54.9014925,65.0219595 L48.0104693,40.0135135 Z M46.9461641,41.3840786 L53.0819324,63.6513944 L20.7898055,63.6513944 L14.6536753,41.3840786 L46.9461641,41.3840786 Z" id="Fill-6" fill="#0E2135"></path>
                                            <polygon id="Fill-7" fill="#6FA9DC" points="20.6771855 65.0219595 76.2916844 65.0219595 76.2916844 64.3074324 20.6771855 64.3074324"></polygon>
                                            <polygon id="Fill-8" fill="#0E2135" points="20.6771855 65.7364865 77.0046908 65.7364865 77.0046908 63.5929054 20.6771855 63.5929054"></polygon>
                                            <polygon id="Fill-9" fill="#FFFFFF" points="48.484435 61.4493243 23.1900482 61.4493243 18.5381663 43.5861486 43.8325531 43.5861486"></polygon>
                                            <polygon id="Fill-10" fill="#1C4481" points="44.2063966 45.7297297 18.9813481 45.7297297 18.5381663 43.5861486 43.7632148 43.5861486"></polygon>
                                            <polygon id="Fill-11" fill="#D8E9EF" points="35.6503198 50.0168919 20.8301069 50.0168919 19.9641791 47.1587838 34.784392 47.1587838"></polygon>
                                            <polygon id="Fill-12" fill="#D8E9EF" points="44.919403 53.589527 22.2424305 53.589527 21.3901919 50.7314189 44.0675214 50.7314189"></polygon>
                                            <polygon id="Fill-13" fill="#D8E9EF" points="46.3454158 57.8766892 23.6684433 57.8766892 22.8162047 55.0185811 45.4935342 55.0185811"></polygon>
                                            <polygon id="Fill-14" fill="#D8E9EF" points="47.0584222 60.7347973 24.2704412 60.7347973 23.5292111 58.5912162 46.3168333 58.5912162"></polygon>
                                            <polygon id="Fill-15" fill="#D8E9EF" points="43.4933902 50.0168919 36.4735817 50.0168919 35.6503198 47.1587838 42.6697833 47.1587838"></polygon>
                                            <path d="M155.071337,71.4527027 L3.2164415,71.4527027 C1.43992483,71.4527027 0,70.0130964 0,68.2369727 C0,66.4612074 1.43992483,65.0219595 3.2164415,65.0219595 L155.071337,65.0219595 C156.847495,65.0219595 158.28742,66.4612074 158.28742,68.2369727 C158.28742,70.0130964 156.847495,71.4527027 155.071337,71.4527027" id="Fill-16" fill="#5B696B"></path>
                                            <polygon id="Fill-17" fill="#5B696B" points="11.4541602 139.33277 9.26908316 139.33277 9.26908316 71.4527027 13.5471215 71.4527027"></polygon>
                                            <polygon id="Fill-18" fill="#5B696B" points="146.83326 139.33277 149.018337 139.33277 149.018337 71.4527027 144.740299 71.4527027"></polygon>
                                            <path d="M118.64761,120.06392 L116.325256,116.467905 L109.802985,120.06392 C111.160233,122.812442 111.760792,124.618402 111.760792,124.618402 L114.99996,125.756757 L119.072068,123.114613 L118.684283,120.245577" id="Fill-19" fill="#F4FBFE"></path>
                                            <path d="M107.146861,136.474662 L122.6371,126.286955 L118.578,120.755068 C114.777492,123.162334 116.529128,125.601762 111.72784,125.260214 C112.921119,132.661002 105.685238,131.043456 107.146861,136.474662" id="Fill-20" fill="#0E2135"></path>
                                            <path d="M88.7684063,92.1739865 C87.9792363,95.6629648 88.4722885,99.4795838 90.5615841,102.869625 L106.426624,128.614865 L118.359062,119.732004 L103.706422,97.201872" id="Fill-21" fill="#57697B"></path>
                                            <path d="M105.100489,120.778094 L102.778135,117.182432 L96.2558635,120.778094 C97.6131118,123.526616 98.2136705,125.332575 98.2136705,125.332575 L101.452839,126.471284 L105.524947,123.828787 L105.137161,120.960104" id="Fill-22" fill="#F4FBFE"></path>
                                            <path d="M92.8867283,136.474662 L108.376972,126.287305 L104.317605,120.755068 C100.517184,123.162683 102.26878,125.602112 97.467602,125.260214 C98.6608539,132.661002 91.4251393,131.043456 92.8867283,136.474662" id="Fill-23" fill="#0E2135"></path>
                                            <path d="M67.4420511,62.0693557 L75.7344723,65.7364865 L77.7176972,59.2657301 L66.0635892,57.1942456 C65.852419,57.156764 65.636635,57.1521234 65.4236904,57.1803239 L63.2906944,57.4641133 C63.0060583,57.5019519 62.7508796,57.6593747 62.5886867,57.8974723 L59.2713633,62.7690127 C59.1368532,62.9660589 59.1514045,63.2295012 59.3064992,63.4104839 C59.5031181,63.6396573 59.8512827,63.6553639 60.0674215,63.4447528 L63.2520094,60.3419882 L63.1061423,61.5506814 C63.0177702,62.2817515 63.5632636,62.9353597 64.2943737,62.9742692 L66.3737786,63.0860001 C66.9533431,63.1170563 67.4406315,62.6533551 67.4420511,62.0693557" id="Fill-24" fill="#955646"></path>
                                            <path d="M99.6950118,78.597973 L85.892126,81.8575385 C76.4059742,84.0973879 71.8841554,95.0951383 76.9984811,103.487467 L92.7466518,129.329392 L104.591813,120.412812 L90.0467826,97.7984296 L117.651843,92.7516621 C124.789294,92.7516621 126.915139,80.9036685 126.915139,80.9036685 L99.6950118,78.597973 Z" id="Fill-25" fill="#74899F"></path>
                                            <path d="M95.565356,19.7103161 C95.205173,25.0250972 99.2123431,29.6262366 104.515813,29.9875469 C109.819642,30.3488572 114.41099,26.3327819 114.771531,21.0180008 C115.131714,15.7032197 111.124544,11.1017211 105.820715,10.7404108 C100.517245,10.3798188 95.925539,14.3951758 95.565356,19.7103161" id="Fill-26" fill="#955646"></path>
                                            <path d="M110.52405,29.5488164 C109.927637,30.709254 109.622503,31.8693296 109.850199,33.4425281 C109.959606,34.2130152 110.196183,35.0808994 110.592252,36.1019397 C110.797214,36.6262185 111.043025,37.1877906 111.334305,37.7957079 L99.4145658,37.8699324 C99.4145658,37.8699324 99.4920036,37.4897579 99.5694414,36.9003063 C99.6603776,36.1899229 99.7516689,35.1782965 99.6877295,34.1757219 C99.606029,32.7603863 99.21884,31.3678612 98.1261853,30.8949965 C95.0847975,29.5766959 94.9071879,28.9408992 95.189232,25.8133298 C95.4215454,24.0634406 94.0511093,24.1934241 94.1193114,23.1723838 C94.178633,22.2538097 95.1938499,21.2787525 95.5583049,19.283017 C95.5991551,19.0791711 95.6311248,18.8655492 95.649241,18.6381686 C95.6538589,18.6197029 95.6584767,18.5965304 95.6584767,18.5777027 L95.6630946,18.5777027 L100.812354,20.8844571 L100.899027,20.9217504 L101.554407,21.2186487 L104.92828,22.7266744 L104.982984,22.750209 L112.655011,26.1844526 C112.650393,26.1891595 112.650393,26.1935044 112.645775,26.1982113 C111.817048,27.4976842 111.056879,28.5234313 110.52405,29.5488164" id="Fill-27" fill="#955646"></path>
                                            <path d="M101.075568,20.7299139 C101.126434,19.6619872 100.546706,18.4679024 99.7306846,17.7724426 C99.0939572,17.2296446 98.3010243,16.8900425 97.491136,16.6575158 C96.9590267,16.5048539 96.4005826,16.3889439 95.9427882,16.0829133 C94.8969681,15.3828594 94.7111808,13.9368118 94.8893923,12.7088021 C95.0347754,11.7041312 95.3648635,10.7157159 95.3731608,9.69443594 C95.3814581,8.65053937 95.1325392,7.67378578 95.4662348,6.64049074 C95.8785744,5.36548098 96.9359386,4.40957705 97.9514555,3.51586872 C98.7544896,2.80910056 99.5575236,2.10233241 100.360558,1.39556425 C100.934153,0.890578404 101.531198,0.372517346 102.265328,0.140697391 C104.224212,-0.476664593 106.181652,1.12981942 108.235053,1.26021815 C109.626113,1.34856417 111.086437,0.757352607 112.377929,1.27117306 C113.863145,1.86097108 114.482557,3.6628765 115.876863,4.43714101 C116.528021,4.79865292 117.29498,4.90396138 117.977522,5.20504461 C119.087917,5.69554171 119.930995,6.72883675 120.174502,7.8974779 C120.340448,8.69400561 120.244127,9.53788679 120.50459,10.310031 C120.948676,11.6274468 122.358134,12.5236289 122.600199,13.8908719 C122.876896,15.4570701 121.507842,16.8858019 121.474292,18.4746167 C121.45445,19.4153252 121.90503,20.3814772 121.589011,21.2698848 C121.288865,22.1141194 120.386985,22.6120375 119.953,23.3983171 C119.465985,24.2803638 119.615337,25.4366365 118.991596,26.232104 C118.048591,27.4350234 116.082853,27.0371129 114.705501,27.7297457 C113.680605,28.2453331 112.871438,29.4037261 111.72569,29.2874628 C110.680952,29.1814475 110.058655,28.0477914 109.069472,27.7021818 C108.5453,27.5194822 107.970622,27.576377 107.416146,27.5300837 C106.609144,27.4629408 105.808635,27.1576169 105.232514,26.6003302 C104.656032,26.0430435 104.32883,25.2214256 104.459783,24.4383264 C104.638355,23.3703998 105.430567,22.5791728 105.279772,21.4539979 C105.253437,21.2557494 101.499091,20.7843351 101.075568,20.7299139" id="Fill-28" fill="#0E2135"></path>
                                            <path d="M101.251932,22.0051219 C101.171682,23.1862037 102.062484,24.2087985 103.241042,24.2888832 C104.4196,24.3693044 105.44001,23.4769315 105.519923,22.2955133 C105.600173,21.114768 104.709371,20.0918367 103.530813,20.011752 C102.352255,19.9316672 101.332181,20.8240401 101.251932,22.0051219" id="Fill-29" fill="#955646"></path>
                                            <path d="M102.204421,86.4577703 C96.4481578,86.4577703 89.4381761,83.1698522 89.4381761,77.046826 L89.4381761,70.0001543 C89.4381761,70.0001543 85.756724,71.3863434 81.9219677,70.0001543 L74.8656716,66.6199438 L77.3199731,59.0642217 L82.38188,59.8339262 L87.9593482,47.3575031 C87.9593482,47.3575031 91.2789022,37.4995173 97.5679598,37.0373341 L114.736222,35.8050858 C121.871863,35.111811 128.323559,38.9242817 128.323559,50.1298813 C128.323559,61.3358414 128.341151,86.4577703 128.341151,86.4577703 L102.204421,86.4577703" id="Fill-30" fill="#E7592F"></path>
                                            <path d="M88.4127932,99.1633711 C88.4127932,95.3035191 91.5431788,92.1739865 95.4045229,92.1739865 L125.62746,92.1739865 C129.488804,92.1739865 132.61919,95.3035191 132.61919,99.1633711 C132.61919,100.244229 132.366618,101.264109 131.928186,102.177365 L89.1034401,102.177365 C88.6653645,101.264109 88.4127932,100.244229 88.4127932,99.1633711" id="Fill-31" fill="#0E2135"></path>
                                            <path d="M131.906183,102.177365 C130.780412,104.710898 128.389172,106.464527 125.611628,106.464527 L95.4203551,106.464527 C92.6431671,106.464527 90.251571,104.710898 89.1257996,102.177365 L131.906183,102.177365 Z" id="Fill-32" fill="#0E2135"></path>
                                            <path d="M115.150533,92.1739865 L115.150533,66.4510135" id="Stroke-33" stroke="#0E2135" stroke-width="1.3461"></path>
                                            <path d="M107.663966,137.189379 C107.663966,138.767638 108.940817,140.047297 110.515991,140.047297 C112.091166,140.047297 113.368017,138.767638 113.368017,137.189379 C113.368017,135.61074 112.091166,134.331081 110.515991,134.331081 C108.940817,134.331081 107.663966,135.61074 107.663966,137.189379" id="Fill-34" fill="#0E2135"></path>
                                            <path d="M118.359062,137.189379 C118.359062,138.767638 119.635998,140.047297 121.211276,140.047297 C122.786177,140.047297 124.063113,138.767638 124.063113,137.189379 C124.063113,135.61074 122.786177,134.331081 121.211276,134.331081 C119.635998,134.331081 118.359062,135.61074 118.359062,137.189379" id="Fill-35" fill="#0E2135"></path>
                                            <path d="M102.672921,137.189379 C102.672921,138.767638 101.39607,140.047297 99.8208955,140.047297 C98.2457214,140.047297 96.9688699,138.767638 96.9688699,137.189379 C96.9688699,135.61074 98.2457214,134.331081 99.8208955,134.331081 C101.39607,134.331081 102.672921,135.61074 102.672921,137.189379" id="Fill-36" fill="#0E2135"></path>
                                            <path d="M110.872495,137.189189 L110.872495,107.179054" id="Stroke-37" stroke="#0E2135" stroke-width="1.3461"></path>
                                            <path d="M121.211087,137.189189 L121.211087,134.624146 C121.211087,132.883801 119.79973,131.472973 118.058286,131.472973 L110.159669,131.472973 L102.260691,131.472973 C100.519608,131.472973 99.1078891,132.883801 99.1078891,134.624146 L99.1078891,137.189189" id="Stroke-38" stroke="#0E2135" stroke-width="1.3461"></path>
                                            <path d="M102.122416,86.4577703 L128.17865,86.4577703 C132.99375,86.4577703 136.897228,82.5340011 136.897228,77.6934264 L136.897228,54.4944334 C136.897228,49.6538587 132.99375,45.7297297 128.17865,45.7297297 L102.122416,45.7297297 C97.3073158,45.7297297 93.403838,49.6538587 93.403838,54.4944334 L93.403838,77.6934264 C93.403838,82.5340011 97.3073158,86.4577703 102.122416,86.4577703" id="Fill-39" fill="#0E2135"></path>
                                            <path d="M112.655011,34.9509831 C112.655011,35.6638341 112.113576,36.2643416 111.40717,36.3155732 L110.925855,36.3485078 L99.8208955,37.1554054 C99.9128643,36.4374312 100.004475,35.4153609 99.9404191,34.4020732 L110.177938,33.6610447 L111.219296,33.5860271 C111.957909,33.5344295 112.599901,34.1020024 112.650359,34.8569365 C112.650359,34.8898711 112.655011,34.9180485 112.655011,34.9509831" id="Fill-40" fill="#0E2135"></path>
                                            <polygon id="Fill-41" fill="#FCF9F3" points="52.7624733 110.751689 52.0035814 116.967532 49.2737132 139.33277 31.2960096 139.33277 28.5661414 116.967532 27.8072495 110.751689"></polygon>
                                            <g id="Group-73" transform="translate(27.807249, 110.037162)">
                                                <g id="Group-45">
                                                    <mask id="mask-4" fill="white">
                                                        <use xlink:href="#path-3"></use>
                                                    </mask>
                                                    <g id="Clip-44"></g>
                                                    <path d="M26.8523923,8.55014294 L-1.94669955,8.55014294" id="Stroke-43" stroke="#B4C8CA" stroke-width="1.24635" mask="url(#mask-4)"></path>
                                                </g>
                                                <g id="Group-48">
                                                    <mask id="mask-6" fill="white">
                                                        <use xlink:href="#path-5"></use>
                                                    </mask>
                                                    <g id="Clip-47"></g>
                                                    <path d="M26.8523923,10.6414465 L-1.94669955,10.6414465" id="Stroke-46" stroke="#B4C8CA" stroke-width="1.24635" mask="url(#mask-6)"></path>
                                                </g>
                                                <g id="Group-51">
                                                    <mask id="mask-8" fill="white">
                                                        <use xlink:href="#path-7"></use>
                                                    </mask>
                                                    <g id="Clip-50"></g>
                                                    <path d="M26.8523923,12.7327868 L-1.94669955,12.7327868" id="Stroke-49" stroke="#B4C8CA" stroke-width="1.24635" mask="url(#mask-8)"></path>
                                                </g>
                                                <g id="Group-54">
                                                    <mask id="mask-10" fill="white">
                                                        <use xlink:href="#path-9"></use>
                                                    </mask>
                                                    <g id="Clip-53"></g>
                                                    <path d="M26.8523923,14.8240904 L-1.94669955,14.8240904" id="Stroke-52" stroke="#B4C8CA" stroke-width="1.24635" mask="url(#mask-10)"></path>
                                                </g>
                                                <g id="Group-57">
                                                    <mask id="mask-12" fill="white">
                                                        <use xlink:href="#path-11"></use>
                                                    </mask>
                                                    <g id="Clip-56"></g>
                                                    <path d="M26.8523923,16.915394 L-1.94669955,16.915394" id="Stroke-55" stroke="#B4C8CA" stroke-width="1.24635" mask="url(#mask-12)"></path>
                                                </g>
                                                <g id="Group-60">
                                                    <mask id="mask-14" fill="white">
                                                        <use xlink:href="#path-13"></use>
                                                    </mask>
                                                    <g id="Clip-59"></g>
                                                    <path d="M26.8523923,19.0067342 L-1.94669955,19.0067342" id="Stroke-58" stroke="#B4C8CA" stroke-width="1.24635" mask="url(#mask-14)"></path>
                                                </g>
                                                <g id="Group-63">
                                                    <mask id="mask-16" fill="white">
                                                        <use xlink:href="#path-15"></use>
                                                    </mask>
                                                    <g id="Clip-62"></g>
                                                    <path d="M26.8523923,21.0980378 L-1.94669955,21.0980378" id="Stroke-61" stroke="#B4C8CA" stroke-width="1.24635" mask="url(#mask-16)"></path>
                                                </g>
                                                <g id="Group-66">
                                                    <mask id="mask-18" fill="white">
                                                        <use xlink:href="#path-17"></use>
                                                    </mask>
                                                    <g id="Clip-65"></g>
                                                    <path d="M26.8523923,23.1893414 L-1.94669955,23.1893414" id="Stroke-64" stroke="#B4C8CA" stroke-width="1.24635" mask="url(#mask-18)"></path>
                                                </g>
                                                <g id="Group-69">
                                                    <mask id="mask-20" fill="white">
                                                        <use xlink:href="#path-19"></use>
                                                    </mask>
                                                    <g id="Clip-68"></g>
                                                    <path d="M26.8523923,25.2810478 L-1.94669955,25.2810478" id="Stroke-67" stroke="#B4C8CA" stroke-width="1.24635" mask="url(#mask-20)"></path>
                                                </g>
                                                <g id="Group-72">
                                                    <mask id="mask-22" fill="white">
                                                        <use xlink:href="#path-21"></use>
                                                    </mask>
                                                    <g id="Clip-71"></g>
                                                    <path d="M26.8523923,27.3723514 L-1.94669955,27.3723514" id="Stroke-70" stroke="#B4C8CA" stroke-width="1.24635" mask="url(#mask-22)"></path>
                                                </g>
                                            </g>
                                            <g id="Group-78" transform="translate(27.807249, 110.751689)">
                                                <polygon id="Fill-74" fill="#B4C8CA" points="24.9552239 0 24.6966649 1.94344075 24.1963319 5.71621622 0.758891937 5.71621622 0.258558947 1.94344075 0 0"></polygon>
                                                <polygon id="Fill-76" fill="#3C4545" points="24.9552239 0 24.6966649 1.90540541 0.258558947 1.90540541 0 0"></polygon>
                                            </g>
                                        </g>
                                    </g>
                                    <g id="Group-152" transform="translate(304.000000, 79.074324)">
                                        <g id="Group-127" transform="translate(0.545929, 0.000000)">
                                            <mask id="mask-24" fill="white">
                                                <use xlink:href="#path-23"></use>
                                            </mask>
                                            <g id="Clip-126"></g>
                                            <path d="M53.0733004,26.7483592 C53.0733004,41.403292 41.2185369,53.2836238 26.5945071,53.2836238 C11.9707624,53.2836238 0.11599902,41.403292 0.11599902,26.7483592 C0.11599902,12.0934264 11.9707624,0.213094613 26.5945071,0.213094613 C41.2185369,0.213094613 53.0733004,12.0934264 53.0733004,26.7483592" id="Fill-125" fill="#E1DAD0" mask="url(#mask-24)"></path>
                                        </g>
                                        <g id="Group-130" transform="translate(0.545929, 0.000000)">
                                            <mask id="mask-26" fill="white">
                                                <use xlink:href="#path-25"></use>
                                            </mask>
                                            <g id="Clip-129"></g>
                                            <path d="M14.3679425,26.97211 L14.4121299,27.0872422 C15.4267293,29.4701651 17.2184566,31.4888359 19.5238979,32.7687177 C20.5895267,33.3615201 21.7612052,33.7931946 23.019833,34.0294585 C24.428698,34.2980051 25.8255896,34.300862 27.1643249,34.0737401 C29.6225691,33.6566357 31.8647226,32.4578893 33.5834695,30.7040512 C35.143997,29.101342 36.2663566,27.0426749 36.7147873,24.6791788 C36.7450058,24.5234789 36.7700928,24.3697788 36.7877678,24.2126504 C36.8353761,23.9303908 36.8653095,23.6484168 36.8898264,23.369014 L36.8878308,23.363586 C37.1138992,20.3410079 36.1591666,17.442704 34.3711453,15.1829126 C32.682902,13.058823 30.2588674,11.5001098 27.3841215,10.9550172 C21.025984,9.74455754 14.8916343,13.9355992 13.6894523,20.3052969 C13.2464381,22.6367959 13.528097,24.9357265 14.3679425,26.97211" id="Fill-128" fill="#DE9885" mask="url(#mask-26)"></path>
                                        </g>
                                        <g id="Group-133" transform="translate(0.545929, 0.000000)">
                                            <mask id="mask-28" fill="white">
                                                <use xlink:href="#path-27"></use>
                                            </mask>
                                            <g id="Clip-132"></g>
                                            <path d="M30.15373,42.6913731 L28.6322584,39.5485204 C28.2074893,38.673744 28.6356794,37.6801214 29.479801,37.3195833 C29.6052362,37.271302 29.7346625,37.2335912 29.8749218,37.2093078 C31.919515,36.8856234 34.6368968,35.738015 35.2452573,31.9617922 C35.3065495,31.4341266 35.4550762,31.0707316 35.643514,30.812184 C36.2082573,30.0188287 37.1456001,30.1202479 37.3192138,29.2129031 C37.5236161,28.1198612 36.6176321,26.6617101 36.7878248,24.2125076 C36.8060699,23.9476749 36.8411347,23.6637011 36.8898834,23.3688712 L36.8878879,23.3637288 L29.426206,24.559047 L27.6088215,24.850163 L22.2356352,25.7103693 L14.3679995,26.9722528 L14.4119018,27.0873851 C15.4681229,29.6405779 16.192511,31.6729617 16.5448698,33.5307902 L16.5468653,33.5359326 C17.1278582,36.6322182 16.6663138,39.2591185 14.8922615,43.0570536 L30.15373,42.6913731 Z" id="Fill-131" fill="#DE9885" mask="url(#mask-28)"></path>
                                        </g>
                                        <g id="Group-136" transform="translate(0.545929, 0.000000)">
                                            <mask id="mask-30" fill="white">
                                                <use xlink:href="#path-29"></use>
                                            </mask>
                                            <g id="Clip-135"></g>
                                            <path d="M16.5447843,33.5306474 L16.5467798,33.5360754 C17.5622345,33.5595018 18.6076226,33.3015257 19.5238694,32.7687177 C21.5003285,31.642536 22.910904,29.2567562 22.2355496,25.7105122 C22.1999146,25.5079594 22.1517361,25.304264 22.0998516,25.0902837 L27.6361037,24.3112128 L27.608736,24.8500202 L27.1642964,34.0737401 L27.1049998,35.2793431 C27.1030042,35.3521935 27.098728,35.4196158 27.1018639,35.4907521 C27.0140593,39.6246562 30.2209233,42.64752 34.2026346,40.1251814 C38.2519097,37.5591326 35.2018397,34.6319743 35.1844498,32.3036178 L35.1793184,32.3056176 C35.2078264,32.1924852 35.2237908,32.07821 35.2451718,31.961935 C35.3067491,31.4339838 35.4549906,31.0708744 35.6434285,30.8120412 C34.9444125,30.8948907 34.2536639,30.8906054 33.583441,30.7040512 C31.9704588,30.2623777 30.5108496,28.7825143 29.5581125,25.0908551 L29.4264056,24.5591899 L27.2751925,15.7214343 C27.2751925,15.7214343 31.6825281,18.9545644 34.3711168,15.1829126 C32.6828735,13.058823 30.2588389,11.5001098 27.384093,10.9550172 C21.0259555,9.74455754 14.8916058,13.9355992 13.6894238,20.3052969 C13.2464096,22.6367959 13.5280685,24.9357265 14.367914,26.97211 L14.4121014,27.0872422 C15.4680374,29.6407208 16.1927106,31.6728189 16.5447843,33.5306474" id="Fill-134" fill="#61382D" mask="url(#mask-30)"></path>
                                        </g>
                                        <g id="Group-139" transform="translate(0.545929, 0.000000)">
                                            <mask id="mask-32" fill="white">
                                                <use xlink:href="#path-31"></use>
                                            </mask>
                                            <g id="Clip-138"></g>
                                            <path d="M35.6120127,21.8966643 L35.6251263,27.0207626" id="Stroke-137" stroke="#0C2135" stroke-width="0.5" mask="url(#mask-32)"></path>
                                        </g>
                                        <g id="Group-142" transform="translate(0.545929, 0.000000)">
                                            <mask id="mask-34" fill="white">
                                                <use xlink:href="#path-33"></use>
                                            </mask>
                                            <g id="Clip-141"></g>
                                            <path d="M35.6185695,24.4586563 L26.59579,24.6809215" id="Stroke-140" stroke="#0C2135" stroke-width="0.5" mask="url(#mask-34)"></path>
                                        </g>
                                        <g id="Group-145" transform="translate(0.545929, 0.000000)">
                                            <mask id="mask-36" fill="white">
                                                <use xlink:href="#path-35"></use>
                                            </mask>
                                            <g id="Clip-144"></g>
                                            <path d="M27.5911466,24.9315555 C27.3029308,26.4551291 25.8367647,27.4561796 24.3164335,27.1670634 C22.7958172,26.8782329 21.7971822,25.4092257 22.085398,23.8853664 C22.3736138,22.3617927 23.8397799,21.3607423 25.3601111,21.6495728 C26.8804423,21.9384033 27.8793624,23.4076962 27.5911466,24.9315555" id="Fill-143" fill="#DE9885" mask="url(#mask-36)"></path>
                                        </g>
                                        <g id="Group-148" transform="translate(0.545929, 0.000000)">
                                            <mask id="mask-38" fill="white">
                                                <use xlink:href="#path-37"></use>
                                            </mask>
                                            <g id="Clip-147"></g>
                                            <path d="M16.6940806,9.20309324 C17.4281614,11.1194878 19.5736729,12.0768279 21.485989,11.3408959 C23.3983051,10.6052495 24.3536079,8.45544798 23.6195271,6.53905347 C22.8854463,4.62265896 20.7399348,3.66531877 18.8276187,4.40067945 C16.9153026,5.13661151 15.9599998,7.28641304 16.6940806,9.20309324" id="Fill-146" fill="#61382D" mask="url(#mask-38)"></path>
                                        </g>
                                        <g id="Group-151" transform="translate(0.545929, 0.000000)">
                                            <mask id="mask-40" fill="white">
                                                <use xlink:href="#path-39"></use>
                                            </mask>
                                            <g id="Clip-150"></g>
                                            <path d="M29.0357035,40.3815863 C32.6516572,47.2860918 47.0313735,65.8480924 49.6997216,73.108565 C52.3680696,80.3690376 54.0557428,84.4769441 54.0557428,84.4769441 L43.5565344,87.748642 C32.9923277,91.3520237 31.0255614,101.009418 22.9030643,106.589474 C13.3942235,97.3566122 9.0185318,70.3425347 9.0185318,70.3425347 C6.52294218,57.0306207 11.2353133,48.8656602 16.0058407,40.3281627 C22.3132339,42.8793557 29.0357035,40.3815863 29.0357035,40.3815863" id="Fill-149" fill="#4684C5" mask="url(#mask-40)"></path>
                                        </g>
                                        <ellipse id="Oval" cx="26.7505101" cy="26.807561" rx="26.7505101" ry="26.807561"></ellipse>
                                    </g>
                                    <g id="Group-262" transform="translate(239.400000, 40.013514)">
                                        <g id="Group-210" transform="translate(1.228053, 0.000000)">
                                            <mask id="mask-42" fill="white">
                                                <use xlink:href="#path-41"></use>
                                            </mask>
                                            <g id="Clip-209"></g>
                                            <path d="M53.4474838,26.765929 C53.4474838,41.4168622 41.5013964,53.2937657 26.7651206,53.2937657 C12.0285574,53.2937657 0.0824700421,41.4168622 0.0824700421,26.765929 C0.0824700421,12.1149958 12.0285574,0.238092305 26.7651206,0.238092305 C41.5013964,0.238092305 53.4474838,12.1149958 53.4474838,26.765929" id="Fill-208" fill="#E1DAD0" mask="url(#mask-42)"></path>
                                        </g>
                                        <g id="Group-213" transform="translate(1.228053, 0.000000)">
                                            <mask id="mask-44" fill="white">
                                                <use xlink:href="#path-43"></use>
                                            </mask>
                                            <g id="Clip-212"></g>
                                            <path d="M42.4053486,152.697389 L43.6421118,147.108191 L52.6069215,148.919738 C51.6408439,152.935938 51.7885428,155.024888 51.7885428,155.024888 L50.5385614,157.65036 L43.649583,156.602743 L42.4053486,152.697389 Z" id="Fill-211" fill="#FFFFFF" mask="url(#mask-44)"></path>
                                        </g>
                                        <g id="Group-219" transform="translate(1.228053, 0.000000)">
                                            <mask id="mask-46" fill="white">
                                                <use xlink:href="#path-45"></use>
                                            </mask>
                                            <g id="Clip-218"></g>
                                            <path d="M68.5095306,50.886188 L70.0908291,50.4122317 C71.4514411,50.0042694 72.6172284,49.1206367 73.3732517,47.9244614 L74.6146126,45.9592143 C74.8404713,45.601533 75.1531104,45.305846 75.5232198,45.0984366 L80.5300422,42.2984094 C80.7481424,42.1764206 81.0242877,42.2892674 81.0932522,42.5286738 C81.1921013,42.871785 81.2518705,43.2151819 80.8719911,43.5960039 C79.9320625,44.538774 77.9001961,45.5718215 77.9001961,45.5718215 C77.9001961,45.5718215 82.6021379,43.7971281 84.4572828,43.0689097 C86.3124277,42.3406912 86.9264991,43.5768628 86.9264991,43.5768628 C88.1669979,43.29746 88.3419953,44.5402024 87.7060852,45.1078643 C88.2204454,45.9477867 86.0848449,48.2255765 86.0848449,48.2255765 L83.3960916,50.8030528 C82.6061608,51.5604115 81.6320373,52.1015044 80.5688347,52.3726222 L73.9054277,54.0730366 L70.3876637,55.8857264" id="Fill-217" fill="#EFB7A8" mask="url(#mask-46)"></path>
                                        </g>
                                        <g id="Group-222" transform="translate(1.228053, 0.000000)">
                                            <mask id="mask-48" fill="white">
                                                <use xlink:href="#path-47"></use>
                                            </mask>
                                            <g id="Clip-221"></g>
                                            <path d="M13.3700892,23.078498 C13.5916376,25.3411463 14.4729464,27.3781011 15.8079841,29.0279488 C16.4783765,29.8610147 17.2677326,30.5920901 18.1432943,31.1937488 C20.2786075,32.6933247 22.9437979,33.4618251 25.7492161,33.1878504 C31.9712503,32.5804779 36.522907,27.0718436 35.9174562,20.8858433 C35.9010771,20.7461419 35.8849854,20.6115829 35.8686063,20.4718815 C35.8309632,20.1870507 35.7821134,19.9076479 35.7174592,19.6282451 C35.4036707,18.1395254 34.7930476,16.7690805 33.955129,15.5757621 C31.6953923,12.3240623 27.7764849,10.3625291 23.5383293,10.7762052 C22.3869096,10.8893376 21.2949718,11.1687403 20.2786075,11.5935583 C20.2461367,11.5987007 20.2191256,11.6149849 20.1866549,11.6309834 C15.7648813,13.5013821 12.8781425,18.0641038 13.3700892,23.078498" id="Fill-220" fill="#EFB7A8" mask="url(#mask-48)"></path>
                                        </g>
                                        <g id="Group-225" transform="translate(1.228053, 0.000000)">
                                            <mask id="mask-50" fill="white">
                                                <use xlink:href="#path-49"></use>
                                            </mask>
                                            <g id="Clip-224"></g>
                                            <path d="M32.5766436,42.0231776 C32.5766436,42.0231776 29.5979522,35.0635344 33.1981862,33.3974025 C33.9496118,33.0480062 34.5550626,32.7683177 35.0309176,32.5054849 L35.0685607,32.4834869 C36.8199716,31.5164333 36.8742811,30.8122126 36.5280219,27.9853307 C36.5173898,27.9261933 36.5119301,27.872484 36.5067578,27.8187747 C36.4469886,27.3242489 36.5119301,26.9697102 36.6363536,26.6900217 C36.760777,26.4109046 36.944395,26.2063521 37.1283003,26.0237975 C37.4472611,25.6958278 37.7607622,25.4269955 37.70674,24.8896165 C37.5984083,23.8362852 36.3768747,22.7452431 35.8688362,20.4717387 C35.8038947,20.2086201 35.7553322,19.9292173 35.7174017,19.6281023 L28.9925014,22.8046661 L27.6140735,23.4548918 L27.5114888,23.5031731 L22.8678795,25.6958278 L22.532827,25.8518134 L15.808214,29.0280916 C16.4242968,29.839731 16.84067,30.6565127 17.1001489,31.4838649 C18.1920867,34.9666862 16.4567676,38.5729247 14.5918527,41.9748964 L32.5766436,42.0231776 Z" id="Fill-223" fill="#EFB7A8" mask="url(#mask-50)"></path>
                                        </g>
                                        <g id="Group-228" transform="translate(1.228053, 0.000000)">
                                            <mask id="mask-52" fill="white">
                                                <use xlink:href="#path-51"></use>
                                            </mask>
                                            <g id="Clip-227"></g>
                                            <path d="M13.3700892,23.078498 C13.5916376,25.3411463 14.4729464,27.3781011 15.8079841,29.0279488 C16.4243543,29.8395881 16.8407274,30.6563699 17.099919,31.4840077 C17.3378465,31.4142999 17.6731864,31.3228798 18.1432943,31.1937488 C18.5757592,31.0811878 19.1217281,30.9357726 19.8136719,30.7532181 C22.3274277,30.0972786 22.9328785,28.125175 22.5328844,25.8516706 C22.4624832,25.4431368 22.3598985,25.0240327 22.2300154,24.6049285 C22.2300154,24.5995004 22.2245557,24.5940724 22.2245557,24.5886443 L27.2681591,22.6862485 L27.3655714,22.9010858 L27.614131,23.454749 L27.7925766,23.8418561 L29.2089349,23.2664806 L28.9925588,22.8045233 L26.1492102,16.6450919 C29.6304804,17.2364659 32.7062969,16.1239972 33.955129,15.5757621 C34.3335716,15.409206 34.544488,15.2909312 34.544488,15.2909312 C35.4309692,14.9092522 36.1714754,14.4041559 36.7553748,13.6410835 C37.0795079,13.2111232 37.3499062,12.7274536 37.4473186,12.195217 C37.5444436,11.6686942 37.4579506,11.0881764 37.1389898,10.6582161 C36.722904,10.1048386 35.9875701,9.86828898 35.301086,9.8842875 C34.6091423,9.90057171 33.9442096,10.1368356 33.2901963,10.3682428 C33.8631763,10.1476918 34.1011038,9.39518979 33.8740957,8.83095617 C33.6468002,8.26643686 33.0631882,7.90104202 32.4577374,7.79905143 C31.8577463,7.69163278 31.2359164,7.80990757 30.6468447,7.97103556 C29.8304774,8.20215708 29.0414087,8.52469873 28.2951554,8.93294675 C28.9224449,8.56212384 28.9710074,7.51964866 28.376476,7.1002588 C27.9330918,6.77771715 27.3170089,6.83171216 26.7816721,6.96055741 C24.5167631,7.50879251 23.0354632,9.70687531 21.1975594,11.029039 C21.2300302,10.8947656 21.2354899,10.7604923 21.1975594,10.6259333 C21.0679636,10.1799745 20.500156,9.97570763 20.0461397,10.0939824 C19.5921234,10.2173996 19.2461515,10.5776521 18.9542019,10.9430469 C18.4461634,11.5827021 18.03525,12.2974933 17.7378406,13.0551376 C17.9001945,12.7597363 17.6461753,12.3566307 17.3217548,12.249212 C17.0188857,12.1469358 16.6838332,12.3189199 16.4568251,12.5446133 C15.8838451,13.1251312 15.7973521,14.0119064 15.4459205,14.7426961 C15.5108621,14.5170027 15.2295444,14.3558747 14.9973639,14.3987279 C14.7700685,14.4418668 14.6025422,14.6407055 14.4890381,14.8449724 C14.2565703,15.2640766 14.1539856,15.7423181 14.062033,16.2099892 C13.8241055,17.4353047 13.5916376,18.8434604 13.4729612,20.0847744 L13.4835933,20.0742039 C13.3106073,21.0415432 13.2675045,22.0520213 13.3700892,23.078498" id="Fill-226" fill="#E7592F" mask="url(#mask-52)"></path>
                                        </g>
                                        <g id="Group-231" transform="translate(1.228053, 0.000000)">
                                            <mask id="mask-54" fill="white">
                                                <use xlink:href="#path-53"></use>
                                            </mask>
                                            <g id="Clip-230"></g>
                                            <path d="M27.5216036,23.579566 C27.6672911,25.0597151 26.5788015,26.3770221 25.0900305,26.5218658 C23.6012594,26.6669953 22.2765664,25.5845238 22.1305916,24.1043747 C21.9849041,22.6242257 23.073681,21.3072044 24.5621647,21.1620749 C26.0509358,21.0172312 27.3759161,22.099417 27.5216036,23.579566" id="Fill-229" fill="#EFB7A8" mask="url(#mask-54)"></path>
                                        </g>
                                        <g id="Group-234" transform="translate(1.228053, 0.000000)">
                                            <mask id="mask-56" fill="white">
                                                <use xlink:href="#path-55"></use>
                                            </mask>
                                            <g id="Clip-233"></g>
                                            <path d="M27.9547294,30.8230402 L28.5547205,32.5483095 L28.5981107,32.6825828 C29.0627589,34.0156026 30.5926213,34.644116 31.8684645,34.0313154 L35.0307739,32.5054563 L35.0687044,32.4834583 C36.8201152,31.5164047 36.8741374,30.812184 36.5281655,27.9853022 C36.5172462,27.9261648 36.5120738,27.8724554 36.5066141,27.8187461 C36.4471323,27.3242203 36.5120738,26.9696816 36.6362099,26.6899932 L34.7658353,27.028819 L32.9118398,27.3673592 C31.906395,27.5444857 30.9061224,27.023391 30.4900366,26.0989049 L29.2090211,23.2665949 L27.7926628,23.8416847 L29.0035644,27.3136499 C29.6305666,29.103199 27.9547294,30.8230402 27.9547294,30.8230402" id="Fill-232" fill="#E7592F" mask="url(#mask-56)"></path>
                                        </g>
                                        <g id="Group-237" transform="translate(1.228053, 0.000000)">
                                            <mask id="mask-58" fill="white">
                                                <use xlink:href="#path-57"></use>
                                            </mask>
                                            <g id="Clip-236"></g>
                                            <path d="M21.3003165,39.1688126 L32.1113632,39.1688126 C34.6167858,39.1688126 37.0549681,39.976738 39.0592487,41.4720285 L56.5724949,54.5348226 L69.681496,50.5043375 L74.2762555,60.1780159 L65.334434,64.7713061 C60.7899611,67.1056621 55.4659021,67.4067771 50.6760306,65.6215134 C47.4890088,64.433623 44.5097427,63.4317155 44.6614645,63.8985296 C47.8697503,73.7850454 52.0021604,85.2665569 49.5450129,94.3054367 L6.56978769,94.3054367 C3.59655589,84.362926 5.48848188,78.1823538 5.48848188,78.1823538 C2.11008367,74.2858563 2.38019461,69.9371149 2.51553743,66.7371247 C2.6505929,63.5371344 3.59655589,49.6978405 3.59655589,49.6978405 C4.67757436,39.0833919 12.7760176,39.1688126 16.0245326,39.1688126 L21.3003165,39.1688126 Z" id="Fill-235" fill="#915B24" mask="url(#mask-58)"></path>
                                        </g>
                                        <g id="Group-240" transform="translate(1.228053, 0.000000)">
                                            <mask id="mask-60" fill="white">
                                                <use xlink:href="#path-59"></use>
                                            </mask>
                                            <g id="Clip-239"></g>
                                            <path d="M19.2731339,94.3054653 C22.0067141,101.904764 25.4474677,110.111149 36.1823661,110.111149 L49.6698099,110.111149 L43.3388692,147.742818 C52.5240779,155.3604 63.2948953,151.710737 63.2948953,151.710737 L70.7074291,108.163329 C71.9413189,100.915712 66.3232987,94.3054653 58.9297301,94.3054653 L19.2731339,94.3054653 Z" id="Fill-238" fill="#6FCDDE" mask="url(#mask-60)"></path>
                                        </g>
                                        <ellipse id="Oval" cx="27.5002421" cy="26.807561" rx="26.8195259" ry="26.807561"></ellipse>
                                    </g>
                                    <g id="Group-124" transform="translate(80.275000, 105.750000) scale(-1, 1) translate(-80.275000, -105.750000) translate(52.250000, 78.121622)">
                                        <mask id="mask-62" fill="white">
                                            <use xlink:href="#path-61"></use>
                                        </mask>
                                        <use id="Fill-79" fill="#E1DAD0" xlink:href="#path-61"></use>
                                        <g id="Group-84" mask="url(#mask-62)">
                                            <g transform="translate(0.548705, 0.000000)">
                                                <mask id="mask-64" fill="white">
                                                    <use xlink:href="#path-63"></use>
                                                </mask>
                                                <g id="Clip-83" stroke="none" fill="none"></g>
                                                <path d="M-26.8578419,35.0976013 L-26.60245,37.1124223 L-26.2390407,39.9500002 C-26.2390407,39.9614872 -26.2390407,39.9784305 -26.2332951,39.9899175 C-25.7960548,43.3102368 -23.547801,44.9390944 -20.8680526,44.0419591 C-18.1825586,43.1453983 -17.3707051,40.4893151 -19.0228527,37.5779333 C-19.0228527,37.5664463 -19.0340567,37.5495029 -19.0398023,37.5380159 L-21.4756499,33.2929926 L-26.8578419,35.0976013 Z" id="Fill-82" stroke="none" fill="#FFFFFF" fill-rule="evenodd" mask="url(#mask-64)"></path>
                                            </g>
                                        </g>
                                        <g id="Group-87" mask="url(#mask-62)">
                                            <g transform="translate(0.548705, 0.000000)">
                                                <mask id="mask-66" fill="white">
                                                    <use xlink:href="#path-65"></use>
                                                </mask>
                                                <g id="Clip-86" stroke="none" fill="none"></g>
                                                <path d="M-20.5382838,52.9165046 L-15.7792023,51.3229696 C-15.7792023,51.3229696 -17.7657439,51.9883545 -18.3644356,50.2015506 L-19.4681656,46.8720417 C-19.4681656,46.8720417 -20.258473,44.1022372 -18.915726,42.7306886 L-21.0746357,43.4178988 L-23.2119994,44.1694362 C-21.3136527,44.4554627 -20.2757098,47.1425607 -20.2757098,47.1425607 L-19.1504338,50.4648902 C-18.5517422,52.2514069 -20.5382838,52.9165046 -20.5382838,52.9165046" id="Fill-85" stroke="none" fill="#FFFFFF" fill-rule="evenodd" mask="url(#mask-66)"></path>
                                            </g>
                                        </g>
                                        <g id="Group-90" mask="url(#mask-62)">
                                            <g transform="translate(0.548705, 0.000000)">
                                                <mask id="mask-68" fill="white">
                                                    <use xlink:href="#path-67"></use>
                                                </mask>
                                                <g id="Clip-89" stroke="none" fill="none"></g>
                                                <path d="M-26.602335,37.1123362 L-26.2389258,39.9502012 C-26.2389258,39.9616882 -26.2389258,39.9783443 -26.2331802,39.9901185 C-25.7962272,43.3101506 -23.5479734,44.9390082 -20.8679377,44.0421601 C-18.1824436,43.1455993 -17.3705902,40.4895161 -19.0227378,37.5778471 L-26.602335,37.1123362 Z" id="Fill-88" stroke="none" fill="#0C2135" fill-rule="evenodd" mask="url(#mask-68)"></path>
                                            </g>
                                        </g>
                                        <g id="Group-93" mask="url(#mask-62)">
                                            <g transform="translate(0.548705, 0.000000)">
                                                <mask id="mask-70" fill="white">
                                                    <use xlink:href="#path-69"></use>
                                                </mask>
                                                <g id="Clip-92" stroke="none" fill="none"></g>
                                                <path d="M41.7308192,49.9695705 L51.3498176,61.0846854 C53.5434882,63.6192934 53.938211,67.2468901 52.3409338,70.1938817 L43.5363744,86.4376579 L33.9883342,82.1911987 L41.7308192,49.9695705 Z" id="Fill-91" stroke="none" fill="#955646" fill-rule="evenodd" mask="url(#mask-70)"></path>
                                            </g>
                                        </g>
                                        <g id="Group-96" mask="url(#mask-62)">
                                            <g transform="translate(0.548705, 0.000000)">
                                                <mask id="mask-72" fill="white">
                                                    <use xlink:href="#path-71"></use>
                                                </mask>
                                                <g id="Clip-95" stroke="none" fill="none"></g>
                                                <path d="M30.7742161,152.194138 L48.8855005,173.545324 C48.8855005,173.545324 49.8774786,174.512243 50.202105,176.02623 L50.2003814,176.034271 C50.3813678,176.87713 50.3457451,177.887413 49.8128405,178.996483 C49.7869853,179.06081 49.7576828,179.120256 49.7237837,179.182573 C48.532146,181.623849 46.5786416,184.883574 43.7727772,187.328871 C43.3168637,187.731777 43.0962326,188.34145 43.2062609,188.939349 C43.3605303,189.772444 44.0974037,190.377522 44.9434435,190.35742 C45.9894302,190.322672 47.4893194,190.047845 49.0906185,189.01143 L62.7151628,180.191419 C63.9970064,179.36177 64.1567341,177.540792 63.0366292,176.501218 L59.4487885,172.529011 L59.0638332,172.101695 L57.511659,170.395013 L56.1194998,168.862072 C53.0096931,165.635084 46.0911273,147.124634 46.0911273,147.124634 L30.7742161,152.194138 Z" id="Fill-94" stroke="none" fill="#955646" fill-rule="evenodd" mask="url(#mask-72)"></path>
                                            </g>
                                        </g>
                                        <g id="Group-99" mask="url(#mask-62)">
                                            <g transform="translate(0.548705, 0.000000)">
                                                <mask id="mask-74" fill="white">
                                                    <use xlink:href="#path-73"></use>
                                                </mask>
                                                <g id="Clip-98" stroke="none" fill="none"></g>
                                                <path d="M61.1604031,181.049355 L58.5013388,182.770683 L49.8128405,178.996627 C50.3457451,177.887269 50.3813678,176.877274 50.2003814,176.034128 L50.202105,176.026374 L55.6788122,178.539444 L57.511659,170.394869 L59.0638332,172.101838 L59.4487885,172.528868 C58.8506714,174.15313 57.8359982,178.204598 61.1604031,181.049355" id="Fill-97" stroke="none" fill="#0C2135" fill-rule="evenodd" mask="url(#mask-74)"></path>
                                            </g>
                                        </g>
                                        <g id="Group-102" mask="url(#mask-62)">
                                            <g transform="translate(0.548705, 0.000000)">
                                                <mask id="mask-76" fill="white">
                                                    <use xlink:href="#path-75"></use>
                                                </mask>
                                                <g id="Clip-101" stroke="none" fill="none"></g>
                                                <path d="M19.6052269,151.42178 L23.1973768,179.184439 C23.1973768,179.184439 23.5039046,180.535024 22.9531888,181.982387 L22.9474432,181.988131 C22.6409153,182.793944 22.0617587,183.622732 21.0114628,184.263707 C20.9545813,184.303624 20.8979872,184.337798 20.8353601,184.371684 C18.507817,185.773674 15.0955044,187.447905 11.4108503,187.975733 C10.8089986,188.06648 10.2921818,188.458187 10.0594849,189.019902 C9.73600756,189.803028 10.0252986,190.711076 10.7463715,191.1539 C11.6435472,191.692928 13.0515068,192.277904 14.9593337,192.277904 L31.1912319,192.277904 C32.7184127,192.277904 33.8425396,190.835997 33.4679264,189.354748 L32.6164283,184.070725 L32.5253605,183.503554 L32.1507473,181.227403 L31.8157787,179.184439 C30.9602587,174.785777 35.2183238,155.489329 35.2183238,155.489329 L19.6052269,151.42178 Z" id="Fill-100" stroke="none" fill="#955646" fill-rule="evenodd" mask="url(#mask-76)"></path>
                                            </g>
                                        </g>
                                        <g id="Group-105" mask="url(#mask-62)">
                                            <g transform="translate(0.548705, 0.000000)">
                                                <mask id="mask-78" fill="white">
                                                    <use xlink:href="#path-77"></use>
                                                </mask>
                                                <g id="Clip-104" stroke="none" fill="none"></g>
                                                <path d="M16.4362692,22.9451236 C16.4362692,29.5128197 21.7624416,34.8367601 28.3322494,34.8367601 C34.9023445,34.8367601 40.2285169,29.5128197 40.2285169,22.9451236 C40.2285169,16.3774275 34.9023445,11.0534871 28.3322494,11.0534871 C21.7624416,11.0534871 16.4362692,16.3774275 16.4362692,22.9451236" id="Fill-103" stroke="none" fill="#955646" fill-rule="evenodd" mask="url(#mask-78)"></path>
                                            </g>
                                        </g>
                                        <g id="Group-108" mask="url(#mask-62)">
                                            <g transform="translate(0.548705, 0.000000)">
                                                <mask id="mask-80" fill="white">
                                                    <use xlink:href="#path-79"></use>
                                                </mask>
                                                <g id="Clip-107" stroke="none" fill="none"></g>
                                                <path d="M22.1034431,44.8225874 C22.1034431,44.8225874 24.4973478,37.20182 20.5627601,35.8173485 C16.6721262,34.4478101 16.4362692,34.3076686 16.527337,30.4681366 C16.6747117,28.3120255 14.9777483,28.5905854 14.9777483,27.3382145 C14.9777483,26.0864179 16.4362692,24.6508292 16.512973,21.6018905 L38.2911001,29.4489519 C34.1542672,35.7688159 31.7428383,37.5952499 37.5605469,44.7232248 L22.1034431,44.8225874 Z" id="Fill-106" stroke="none" fill="#955646" fill-rule="evenodd" mask="url(#mask-80)"></path>
                                            </g>
                                        </g>
                                        <g id="Group-111" mask="url(#mask-62)">
                                            <g transform="translate(0.548705, 0.000000)">
                                                <mask id="mask-82" fill="white">
                                                    <use xlink:href="#path-81"></use>
                                                </mask>
                                                <g id="Clip-110" stroke="none" fill="none"></g>
                                                <path d="M15.3575039,83.430819 C15.3575039,83.430819 17.7104772,71.3978923 15.8384078,62.8845844 C13.9666313,54.3715638 21.9791586,49.9694556 22.9509243,39.6167908 L39.4158803,41.1767263 C40.5736229,49.5475953 45.6380509,51.9601539 43.6122211,63.4526169 C41.5863913,74.94508 44.0855103,86.4378302 44.0855103,86.4378302 L15.3575039,83.430819 Z" id="Fill-109" stroke="none" fill="#F58B6E" fill-rule="evenodd" mask="url(#mask-82)"></path>
                                            </g>
                                        </g>
                                        <path d="M21.3705046,19.5125499 C20.83444,18.7661817 21.1076434,17.5451128 20.363588,17.0052235 C19.7916134,16.5899682 18.968556,16.8596257 18.3060882,16.6132294 C17.7703109,16.4139299 17.4051779,15.8875378 17.2730291,15.3318538 C17.0854352,14.5424093 17.3310597,13.6639404 17.900736,13.086144 C18.4704124,12.5086347 19.3454675,12.2504643 20.1377859,12.4265026 C20.6485698,12.540224 21.2521453,12.0933795 21.4825439,11.6238481 C21.7129425,11.1543167 21.7255828,10.6129915 21.8045848,10.095789 C21.9490867,9.15069551 22.3495551,8.22082232 23.0548277,7.57525254 C23.7603875,6.92939559 24.7951703,6.60948245 25.70987,6.88947824 C26.4680021,7.1212286 27.0511806,7.71022487 27.6685455,8.20761226 C28.2859103,8.7044253 29.0555336,9.14351613 29.8326262,8.98729284 C30.5399097,8.84485396 31.0731015,8.24264763 31.7634355,8.03387128 C32.9226106,7.68380475 34.4469186,8.13581847 35.0639962,9.1774028 C35.2981294,9.57198148 35.4380348,10.0374924 35.7798981,10.3439083 C36.5319973,11.01877 37.7377117,10.5569923 38.7121657,10.8243524 C39.3071227,10.9880422 39.8000953,11.4325894 40.1097832,11.9661609 C40.4194711,12.4997323 40.5602384,13.1165846 40.6148216,13.7308523 C40.7193915,14.9114294 40.569144,16.2513887 41.3660589,17.1281345 C42.0362833,17.8664619 43.2687148,18.0941918 44.2655766,18.1108479 C45.2624385,18.1277913 46.2920502,18.035608 47.2277214,18.3802182 C48.5161725,18.8543444 49.4058788,20.1184895 49.6934462,21.4601719 C49.9810135,22.8024286 49.7388364,24.2090126 49.2955633,25.5079059 C48.9637548,26.4811425 48.9298558,27.6008385 49.5477952,28.4227339 C50.0893181,29.1429692 50.9546056,29.5501836 51.5581811,30.2193017 C52.3372846,31.0828374 52.6030187,32.3777103 52.2266818,33.4781655 C52.0014542,34.1378069 51.5590429,34.7988841 51.7408912,35.4714484 C51.9146956,36.1147207 52.5820472,36.4685205 53.0391098,36.9532722 C54.060965,38.036497 53.8788294,40.0091032 52.6757005,40.8869977 C52.1873244,41.2430949 51.5647885,41.4429688 51.2079867,41.9308794 C50.6159025,42.740139 51.0376296,43.8621324 51.0364805,44.8646609 C51.0350441,45.8594357 50.5581592,46.8432978 49.7779065,47.4604373 C48.9976539,48.078151 47.9304084,48.3165064 46.9614128,48.0896381 C46.5273326,47.987978 46.0955506,47.7972937 45.6537139,47.8564518 C45.3026577,47.9032614 44.9938316,48.1028481 44.6666196,48.238682 C43.476131,48.7340591 41.9673361,48.2886504 41.2367829,47.2266767 C40.6751504,46.410812 40.5608129,45.335341 39.9325314,44.5700192 C39.465414,44.0014124 38.7299771,43.6628328 37.9939656,43.6780531 C37.0183625,43.6978682 36.0450576,43.258203 35.3949428,42.5307883 C34.7451153,41.8033736 34.4147432,40.8083117 34.4641554,39.8345007 C34.5060983,39.0068618 34.8005604,38.1395928 34.4747848,37.3780043 C34.1969849,36.7284141 33.5368154,36.3344097 33.1145137,35.7683875 C32.6718151,35.1742221 32.5095018,34.3804699 32.6835936,33.6605217 C32.7964946,33.1938621 32.8226371,32.4601295 32.7390386,31.9874392 C32.6247012,31.3404336 31.424445,30.4611032 30.926876,29.9634286 C30.4772827,29.5134251 29.7007647,28.455759 30.4120701,26.6034792 L31.999867,24.4298503 C30.4586095,24.3485797 28.9170646,24.2675963 27.3758071,24.1863258 C27.1945334,24.1765618 26.9695931,24.1271677 26.7897558,24.1553109 C26.6705345,24.1739772 26.6581815,24.2081511 26.5375239,24.2644374 C25.8799398,24.5717149 25.0129286,24.5349564 24.4472741,24.0674353 C23.4613289,23.2518578 23.9807313,21.9075908 23.3079214,20.9622102 C22.835633,20.2988355 21.8453786,20.1739143 21.3705046,19.5125499 Z" id="Fill-112" fill="#0C2135" mask="url(#mask-62)"></path>
                                        <g id="Group-117" mask="url(#mask-62)" fill="#955646">
                                            <g transform="translate(26.116631, 21.825313)" id="Fill-115">
                                                <path d="M0.203796478,3.09356578 C0.203796478,4.66412677 1.477309,5.93717429 3.04844367,5.93717429 C4.61929106,5.93717429 5.89280359,4.66412677 5.89280359,3.09356578 C5.89280359,1.52329196 4.61929106,0.250244441 3.04844367,0.250244441 C1.477309,0.250244441 0.203796478,1.52329196 0.203796478,3.09356578"></path>
                                            </g>
                                        </g>
                                        <ellipse id="Oval" cx="27.4352461" cy="27.4252285" rx="27.4352461" ry="27.4252285"></ellipse>
                                    </g>
                                    <g id="Group-207" transform="translate(123.500000, 20.006757)">
                                        <g id="Group-155" transform="translate(0.000000, 5.716216)">
                                            <mask id="mask-84" fill="white">
                                                <use xlink:href="#path-83"></use>
                                            </mask>
                                            <g id="Clip-154"></g>
                                            <path d="M93.6733063,47.1296446 C93.6733063,72.9304634 72.8021531,93.8456322 47.056738,93.8456322 C21.3108275,93.8456322 0.439674269,72.9304634 0.439674269,47.1296446 C0.439674269,21.3288258 21.3108275,0.413656995 47.056738,0.413656995 C72.8021531,0.413656995 93.6733063,21.3288258 93.6733063,47.1296446" id="Fill-153" fill="#E7EEF5" mask="url(#mask-84)"></path>
                                        </g>
                                        <g id="Group-158" transform="translate(0.000000, 5.716216)">
                                            <mask id="mask-86" fill="white">
                                                <use xlink:href="#path-85"></use>
                                            </mask>
                                            <g id="Clip-157"></g>
                                            <path d="M131.89812,101.446139 L130.655777,97.4470741 C130.528472,97.0375373 130.079683,96.8235853 129.681916,96.9829324 C129.380742,97.104056 129.194489,97.4083543 129.223715,97.7325088 L129.655662,102.510935 L131.89812,101.446139 Z" id="Fill-156" fill="#61382D" mask="url(#mask-86)"></path>
                                        </g>
                                        <g id="Group-161" transform="translate(0.000000, 5.716216)">
                                            <mask id="mask-88" fill="white">
                                                <use xlink:href="#path-87"></use>
                                            </mask>
                                            <g id="Clip-160"></g>
                                            <path d="M133.917966,100.619619 L133.504347,93.7786171 C133.46571,93.1412289 132.891102,92.6736124 132.260519,92.7664407 C131.717118,92.8463624 131.318855,93.3199359 131.331734,93.8699562 L131.526903,102.155506 L133.917966,100.619619 Z" id="Fill-159" fill="#61382D" mask="url(#mask-88)"></path>
                                        </g>
                                        <g id="Group-164" transform="translate(0.000000, 5.716216)">
                                            <mask id="mask-90" fill="white">
                                                <use xlink:href="#path-89"></use>
                                            </mask>
                                            <g id="Clip-163"></g>
                                            <path d="M136.883687,100.824189 L137.903121,92.4944586 C137.996247,91.7339612 137.473156,91.0365076 136.718735,90.9143912 C135.966295,90.7927711 135.251998,91.2876902 135.09943,92.0362738 L133.251272,101.115581 L136.883687,100.824189 Z" id="Fill-162" fill="#61382D" mask="url(#mask-90)"></path>
                                        </g>
                                        <g id="Group-167" transform="translate(0.000000, 5.716216)">
                                            <mask id="mask-92" fill="white">
                                                <use xlink:href="#path-91"></use>
                                            </mask>
                                            <g id="Clip-166"></g>
                                            <path d="M115.084641,100.69279 C119.531414,99.2035651 125.842691,93.771866 127.706205,92.1103876 C128.036109,91.8165139 128.50917,91.7475131 128.90991,91.9336662 C129.507304,92.2116548 129.727736,92.9408786 129.399317,93.5122445 C128.732079,94.6743362 127.829548,95.892522 127.069678,96.8471151 C126.409374,97.6771097 126.844293,98.9136626 127.875615,99.1544206 L131.947902,100.107524 L141.599337,92.9006695 C142.172955,92.4717728 142.988304,92.6206952 143.374678,93.2243277 C143.68774,93.7137862 143.613933,94.350678 143.205268,94.7636897 C139.23106,98.7865821 135.657592,103.702513 133.719281,106.529558 C132.783066,107.895177 131.21924,108.695387 129.567242,108.633833 C123.041477,108.3896 117.271124,109.877832 117.271124,109.877832" id="Fill-165" fill="#61382D" mask="url(#mask-92)"></path>
                                        </g>
                                        <g id="Group-170" transform="translate(0.000000, 5.716216)">
                                            <mask id="mask-94" fill="white">
                                                <use xlink:href="#path-93"></use>
                                            </mask>
                                            <g id="Clip-169"></g>
                                            <path d="M-41.9463419,95.5134647 L-40.455333,91.6007749 C-40.3027646,91.2001734 -39.8410967,91.0145167 -39.454227,91.1991806 C-39.161474,91.3386713 -38.9945405,91.6548834 -39.0440757,91.9760595 L-39.7752149,96.7172547 L-41.9463419,95.5134647 Z" id="Fill-168" fill="#61382D" mask="url(#mask-94)"></path>
                                        </g>
                                        <g id="Group-173" transform="translate(0.000000, 5.716216)">
                                            <mask id="mask-96" fill="white">
                                                <use xlink:href="#path-95"></use>
                                            </mask>
                                            <g id="Clip-172"></g>
                                            <path d="M-43.9103128,94.5614033 L-43.0677194,87.7596175 C-42.9889584,87.1257041 -42.3861153,86.6953182 -41.7629627,86.8283556 C-41.2260013,86.9420331 -40.8579549,87.4399305 -40.9055087,87.9884617 L-41.6203014,96.2447237 L-43.9103128,94.5614033 Z" id="Fill-171" fill="#61382D" mask="url(#mask-96)"></path>
                                        </g>
                                        <g id="Group-176" transform="translate(0.000000, 5.716216)">
                                            <mask id="mask-98" fill="white">
                                                <use xlink:href="#path-97"></use>
                                            </mask>
                                            <g id="Clip-175"></g>
                                            <path d="M-46.8829686,94.5783805 L-47.3773297,86.2004984 C-47.4224067,85.4360297 -46.8562196,84.7728283 -46.0958545,84.6988635 C-45.3374709,84.6244022 -44.6553715,85.1635016 -44.5503569,85.9205242 L-43.276312,95.0986163 L-46.8829686,94.5783805 Z" id="Fill-174" fill="#61382D" mask="url(#mask-98)"></path>
                                        </g>
                                        <g id="Group-179" transform="translate(0.000000, 5.716216)">
                                            <mask id="mask-100" fill="white">
                                                <use xlink:href="#path-99"></use>
                                            </mask>
                                            <g id="Clip-178"></g>
                                            <path d="M-25.1188446,95.8217838 C-29.46308,94.0550669 -35.4206762,88.2361694 -37.1762031,86.4610135 C-37.487284,86.146787 -37.9553915,86.0484982 -38.3665335,86.2088381 C-38.9802744,86.4481069 -39.2462783,87.1619419 -38.9540207,87.7531641 C-38.3610846,88.9549685 -37.5368192,90.2272629 -36.8383731,91.2285183 C-36.2320625,92.0977292 -36.7437609,93.3044976 -37.7879625,93.4802261 L-41.9122617,94.1747013 L-51.0911308,86.3726528 C-51.6370085,85.9090075 -52.4602832,86.0063035 -52.8833137,86.5846191 C-53.2265925,87.0532285 -53.1929086,87.6926023 -52.8114877,88.1309308 C-49.0978351,92.3970633 -45.8404016,97.5284354 -44.0833887,100.472136 C-43.2343557,101.893353 -41.724028,102.791356 -40.0715344,102.834047 C-33.5432929,103.001833 -27.8779542,104.850457 -27.8779542,104.850457" id="Fill-177" fill="#61382D" mask="url(#mask-100)"></path>
                                        </g>
                                        <g id="Group-182" transform="translate(0.000000, 5.716216)">
                                            <mask id="mask-102" fill="white">
                                                <use xlink:href="#path-101"></use>
                                            </mask>
                                            <g id="Clip-181"></g>
                                            <path d="M65.3912937,32.4279186 C65.3912937,43.4238577 56.4957658,52.3388535 45.5227325,52.3388535 C44.6974764,52.3388535 43.8722202,52.2916947 43.0756945,52.1869526 C37.2434223,51.4741103 32.1977687,48.2236291 29.0582289,43.5762551 C29.0012635,43.4903765 28.9447934,43.3955625 28.8878279,43.3101803 C26.8484645,40.1833047 25.6536759,36.448329 25.6536759,32.4279186 C25.6536759,28.5311138 26.7726757,24.9008803 28.6981082,21.8305953 C32.2165921,16.2231677 38.4382109,12.5070555 45.5227325,12.5070555 C52.6072541,12.5070555 58.8283775,16.2231677 62.3468614,21.8305953 L62.3468614,21.840027 C63.9022661,24.3017155 64.9266537,27.134221 65.2585394,30.175218 C65.2679511,30.2134414 65.2773628,30.2511684 65.2773628,30.2893919 C65.2872698,30.7361593 65.3155049,31.1635668 65.3724703,31.5721108 C65.381882,31.8575455 65.3912937,32.1429803 65.3912937,32.4279186" id="Fill-180" fill="#DE9885" mask="url(#mask-102)"></path>
                                        </g>
                                        <g id="Group-185" transform="translate(0.000000, 5.716216)">
                                            <mask id="mask-104" fill="white">
                                                <use xlink:href="#path-103"></use>
                                            </mask>
                                            <g id="Clip-184"></g>
                                            <path d="M30.5010897,69.4732116 L56.914239,69.4732116 C53.4492531,65.1621781 51.9295138,56.5762328 58.5018416,54.2323309 C65.0008574,51.9150187 65.3951574,51.6777187 65.2425891,45.1793109 C64.9968946,41.5305099 67.8312976,42.0015981 67.8312976,39.8829556 C67.8312976,37.7638115 65.3951574,35.3341204 65.2668613,30.1742251 L28.8882242,43.4549979 C35.798382,54.1500535 39.8265829,57.2419771 30.1082757,69.3056467 L30.5010897,69.4732116 Z" id="Fill-183" fill="#DE9885" mask="url(#mask-104)"></path>
                                        </g>
                                        <g id="Group-188" transform="translate(0.000000, 5.716216)">
                                            <mask id="mask-106" fill="white">
                                                <use xlink:href="#path-105"></use>
                                            </mask>
                                            <g id="Clip-187"></g>
                                            <path d="M119.032198,120.559793 L96.3748065,129.4455 C86.3315485,133.000776 78.4505012,127.278678 78.4505012,127.278678 L78.4505012,151.752101 L8.13679748,155.696065 C10.3089152,140.299963 13.8462225,124.114076 13.8462225,124.114076 C5.97458681,132.011931 -4.26780261,127.278678 -8.60213097,125.701093 C-12.9364593,124.114076 -29.2865366,117.214001 -29.2865366,117.214001 L-19.6316344,98.0635635 L-0.133101032,106.160975 L16.4071913,74.9681697 C18.7685334,70.8052901 22.438595,68.324738 26.1467987,66.8613265 C32.6433377,64.2760324 39.2632193,64.7893185 39.2632193,64.7893185 L54.6176394,64.7893185 L64.9645481,65.6545581 C66.9182156,65.8158907 68.795599,66.2244347 70.5882772,66.842463 C77.6822105,69.2947198 83.2876116,75.1012071 85.3641264,82.5810866 L92.6383678,108.726909 L111.938265,101.617847 L119.032198,120.559793 Z" id="Fill-186" fill="#004471" mask="url(#mask-106)"></path>
                                        </g>
                                        <g id="Group-191" transform="translate(0.000000, 5.716216)">
                                            <mask id="mask-108" fill="white">
                                                <use xlink:href="#path-107"></use>
                                            </mask>
                                            <g id="Clip-190"></g>
                                            <path d="M70.5884258,66.842463 C65.2014749,73.3760666 57.235227,77.0213638 48.3580272,77.0213638 C39.4907344,77.0213638 31.5338982,72.8978068 26.1469473,66.3746071 C32.6434863,63.6654504 39.2628726,64.2033283 39.2628726,64.2033283 L54.617788,64.2033283 L64.9646967,65.5971249 C66.9701458,65.7972582 68.8447221,66.2123709 70.5884258,66.842463 Z" id="Fill-189" fill="#DE9885" mask="url(#mask-108)"></path>
                                        </g>
                                        <path d="M62.3469605,27.54701 L62.3469605,27.5564418 C61.4365039,33.5535499 57.1120826,34.8079735 54.3708056,35.7015084 C52.4840106,36.3195366 53.1472867,38.8477439 52.4359614,40.5201433 L52.4359614,40.529575 C52.1045711,41.2900725 51.4972698,41.8793091 50.2361041,42.03121 L50.2266924,42.03121 L48.6995227,41.8698773 L42.2237885,44.8681831 C48.0248536,52.6642747 46.7270318,68.5716771 36.6074896,74.7728089 C26.4884428,80.9744372 16.7958939,76.8165217 13.5141881,69.6885956 C9.63558345,61.2486626 8.27336597,51.4967225 18.9011391,46.0799157 C26.8193378,42.0441166 23.4440106,35.1887187 28.6982072,27.54701 C32.2166912,21.9395825 38.4383099,18.2234703 45.5228316,18.2234703 C52.6068578,18.2234703 58.8284766,21.9395825 62.3469605,27.54701" id="Fill-192" fill="#F4BA64"></path>
                                        <ellipse id="Oval" stroke="#98ACAF" stroke-width="2" cx="47.0584222" cy="52.875" rx="47.0584222" ry="47.1587838"></ellipse>
                                        <ellipse id="Oval" fill="#44712E" cx="79.5002132" cy="15.3623311" rx="14.6166311" ry="14.6478041"></ellipse>
                                        <path d="M85.1151035,9.28885135 L86.9867804,10.7777451 L79.5225385,21.2943076 C79.1055183,21.8587155 78.4849022,22.1430627 77.8600739,22.1502071 C77.2212044,22.1573515 76.5809308,21.8715754 76.1540818,21.2943076 L72.7266525,16.3560956 L74.7148704,14.8872062 L77.8418204,19.4124716 L85.1151035,9.28885135 Z" id="Fill-1" fill="#FFFFFF"></path>
                                    </g>
                                </g>
                            </g>
                        </g>
                    </g>
                </g>
            </g>
        </g>
    </g>
</svg>